# xmcd
#
# Track frame offsets:
#	150
#	17401
#	27724
#	37117
#	49243
#	62634
#	73520
#	86150
#	101115
#	111563
#	126710
#	141646
#	156771
#	170141
#	185350
#
# Disc length: 2826 seconds
#
# Revision: 0
# Processed by: cddbd v1.5.2PL0 Copyright (c) Steve Scherf et al.
# Submitted via: audiograbber 1.83.01
#
DISCID=ec0b080f
DTITLE=Mahalia Jackson - World's Greatest Gospel Singer GSS 5415 CD2
DYEAR=1900
DGENRE=
TTITLE0=When The Saints Go Marching In
TTITLE1=Amazing Grace.
TTITLE2=Joshua Fit The Battle Of Jericho
TTITLE3=Nobody Knows The Trouble I've Seen
TTITLE4=It Is No Secret What God Can Do
TTITLE5=Jesus Met The Woman At The Well
TTITLE6=Oh lord, Is It I
TTITLE7=Come To Jesus
TTITLE8=A Rusty Old Halo
TTITLE9=Said He Would
TTITLE10=I Bowed On My Knees And Cried Holy
TTITLE11=I Wonder If I Will Ever Rest
TTITLE12=I'm Going To The River
TTITLE13=Since The Fire Started Buring In My Soul
TTITLE14=In The Upper Room (part 1 and 2)
EXTD=
EXTT0=
EXTT1=
EXTT2=
EXTT3=
EXTT4=
EXTT5=
EXTT6=
EXTT7=
EXTT8=
EXTT9=
EXTT10=
EXTT11=
EXTT12=
EXTT13=
EXTT14=
PLAYORDER=
